# xmcd
#
# Track frame offsets:
#	150
#	12124
#	23377
#	36350
#	47625
#	58518
#	70431
#	79133
#	91125
#	104222
#	116318
#	129276
#	140723
#	152527
#	165259
#	178111
#	189366
#	200917
#	212715
#	224172
#	236217
#	247323
#	260402
#	273367
#	286513
#	299235
#	311162
#	322345
#	335160
#
# Disc length: 4624 seconds
#
# Revision: 2
# Processed by: cddbd v1.5.2PL0 Copyright (c) Steve Scherf et al.
# Submitted via: EasyCDDAExtractor 8.2.3.1
#
DISCID=c8120e1d
DTITLE=Various Artist - A Shot In The Dark - Tennessee Jive_2_Lost Highway
DYEAR=1900
DGENRE=Country
TTITLE0=Leon Payne - Lost Highway
TTITLE1=Leon Payne - Rolling Stone
TTITLE2=Leon Payne - They'll Never Take Her Love from Me
TTITLE3=Dale Belmont and her Texas Townmen - Gonna Go Back to Texas
TTITLE4=Autry Inman - You've Got to Leave Those Other Guys Alone
TTITLE5=Butterball Paige - The Girl At The End Of The Bar
TTITLE6=Butterball Paige - Honky Tonk Pete
TTITLE7=Autry Inman - Double Cross
TTITLE8=Pete Pyle - Think Twice
TTITLE9=Butterball Paige - I'm Too Old to Boogie
TTITLE10=Johnny Lee Wills and his Boys - Rag Mop
TTITLE11=Jimmy Work and his Tennessee Border Boys - Hospitality
TTITLE12=Ray Price - Jealous Lies
TTITLE13=Tani Allen (Buck Turner vcl) - Tennessee Jive
TTITLE14=Roy Hall and His Cohutta Mountain Boys (Frankie Brumbalough vcl) - Mule
TTITLE14=Boogie
TTITLE15=Paul Blunt and The Frontiersmen - Walking up Stairs
TTITLE16=Wally Fowler - Linger Longer Little Darling
TTITLE17=Wiley Jordan and Sons of The South (Paul McSwain vcl) - I Feel like the
TTITLE17=World Belongs to Me
TTITLE18=Al Clauser (Norman Hart vcl) - Move it over Rover (Dog House Blues)
TTITLE19=Johnnie Lee Wills and his Boys - I Needed You
TTITLE20=George Lee - Station Door Blues
TTITLE21=Johnnie Lee Wills and his Boys - the Bands a Rockin'
TTITLE22=Si Jenkins and The Ozark Ramblers - One Dollar Boogie
TTITLE23=Johnnie Lee Wills (Leon Huff vcl) - Careless Me
TTITLE24=Johnnie Lee Wills (Leon Huff vcl) - Levee Blues
TTITLE25=Tani Allen and his Tennessee Pals (Buck Turner vcl) - When Hillbilly Wi
TTITLE25=llie Met Kitty from the City
TTITLE26=Shorty Ashburn - More and More
TTITLE27=Ray Batts - Bear Cat Daddy
TTITLE28=Ray Batts - Wild Man Boogie
EXTD=Volume #2 of a 8-CD Box Set -BCD 15854
EXTT0=
EXTT1=
EXTT2=
EXTT3=
EXTT4=
EXTT5=
EXTT6=
EXTT7=
EXTT8=
EXTT9=
EXTT10=
EXTT11=
EXTT12=
EXTT13=
EXTT14=
EXTT15=
EXTT16=
EXTT17=
EXTT18=
EXTT19=
EXTT20=
EXTT21=
EXTT22=
EXTT23=
EXTT24=
EXTT25=
EXTT26=
EXTT27=
EXTT28=
PLAYORDER=
